<svg width="192" height="192" viewBox="0 0 192 192" fill="none" xmlns="http://www.w3.org/2000/svg">
<rect width="192" height="192" rx="41" fill="url(#paint0_linear_44_2053)"/>
<path d="M97.2927 75.2915V78.1896C98.1814 78.3656 99.0969 78.4925 99.8852 78.7715C101.106 79.2037 102.077 79.6362 102.088 79.6414L100.908 82.2849C100.902 82.2822 100.03 81.8908 98.9252 81.4997C97.8165 81.1073 96.416 80.7542 95.8463 80.7542C94.5064 80.7542 93.3011 81.036 92.5754 81.4884C91.8497 81.9409 91.5077 82.4012 91.5077 83.477C91.5077 84.5476 91.806 84.8557 92.6038 85.3241C93.4017 85.7924 94.7394 86.1496 96.1965 86.5162C97.6536 86.8829 99.2358 87.2595 100.614 88.16C101.992 89.0605 103.077 90.6984 103.077 92.7867C103.077 95.5339 100.585 97.6286 97.2927 98.2548V101.322H94.4V98.4076C90.7961 97.88 87.7964 96.0404 87.7964 96.0404L89.4461 93.6678C89.4617 93.6781 92.7833 95.8597 95.8463 95.8597C98.7838 95.8597 100.185 94.0538 100.185 92.7867C100.185 91.5328 99.8234 91.1003 99.0325 90.5835C98.2415 90.0667 96.9313 89.679 95.4961 89.3179C94.0609 88.9568 92.5063 88.6207 91.1349 87.8157C89.7635 87.0106 88.6154 85.4606 88.6154 83.477C88.6154 81.5275 89.6443 79.9077 91.0502 79.0311C92.0323 78.4188 93.2332 78.354 94.4 78.2121V75.2915H97.2927Z" fill="white"/>
<path fill-rule="evenodd" clip-rule="evenodd" d="M95.8463 66.6146C107.81 66.6146 117.539 76.3437 117.539 88.3069C117.539 100.27 107.81 109.999 95.8463 109.999C83.8831 109.999 74.154 100.27 74.154 88.3069C74.154 76.3437 83.8831 66.6146 95.8463 66.6146ZM95.8463 69.5069C85.4462 69.5069 77.0463 77.9069 77.0463 88.3069C77.0463 98.707 85.4462 107.107 95.8463 107.107C106.246 107.107 114.646 98.707 114.646 88.3069C114.646 77.9069 106.246 69.5069 95.8463 69.5069Z" fill="white"/>
<path fill-rule="evenodd" clip-rule="evenodd" d="M134 48.4609V127.153H128.644C127.925 127.953 126.846 129.398 126.846 131.922C126.846 134.447 127.925 135.891 128.644 136.691H134V143.845H69.6157C63.0733 143.845 57.6923 138.465 57.6923 131.922V62.7686C57.6923 54.9087 64.1401 48.461 72 48.4609H134ZM69.6157 127.153C66.9415 127.153 64.8462 129.244 64.8462 131.922C64.8462 134.594 66.944 136.691 69.6157 136.691H120.531C120.034 135.299 119.693 133.705 119.693 131.922C119.693 130.14 120.034 128.546 120.531 127.153H69.6157ZM72 55.6148C68.0038 55.6149 64.8462 58.7724 64.8462 62.7686V121.024C66.3125 120.374 67.9203 119.999 69.6157 119.999H126.846V55.6148H72Z" fill="white"/>
<defs>
<linearGradient id="paint0_linear_44_2053" x1="0" y1="0" x2="192" y2="199.385" gradientUnits="userSpaceOnUse">
<stop stop-color="#1D60E4"/>
<stop offset="1" stop-color="#D81F1F"/>
</linearGradient>
</defs>
</svg>
